<?xml version="1.0" encoding="utf-8"?>
<!-- Generator: Adobe Illustrator 26.0.2, SVG Export Plug-In . SVG Version: 6.00 Build 0)  -->
<svg version="1.1" id="svg5" xmlns:svg="http://www.w3.org/2000/svg"
	 xmlns="http://www.w3.org/2000/svg" xmlns:xlink="http://www.w3.org/1999/xlink" x="0px" y="0px" viewBox="0 0 595.3 841.9"
	 style="enable-background:new 0 0 595.3 841.9;" xml:space="preserve">
<style type="text/css">
	.st0{clip-path:url(#SVGID_00000106851611265655732520000005353637596029483919_);}
	.st1{fill:#FFFFFF;}
	.st2{clip-path:url(#SVGID_00000007415367567114097150000010584984494097689256_);}
	.st3{clip-path:url(#SVGID_00000180366583618119049790000012770379968933174174_);}
</style>
<g id="layer1">
	<g id="g15" transform="matrix(0.35277777,0,0,-0.35277777,-127.2437,289.72938)">
		<g id="g19">
			<g>
				<defs>
					<rect id="SVGID_1_" x="547.6" y="-499.8" width="1300" height="900"/>
				</defs>
				<clipPath id="SVGID_00000181782085410095524590000003653712450509364910_">
					<use xlink:href="#SVGID_1_"  style="overflow:visible;"/>
				</clipPath>
				<g id="g21" style="clip-path:url(#SVGID_00000181782085410095524590000003653712450509364910_);">
					<g id="g27" transform="translate(446.1169,452.8574)">
						<path id="path29" class="st1" d="M173.5-494.5H-51.7c-7.3,0-10.6,9.2-4.8,13.8l21.7,17.2c9,7.1,20.1,11,31.6,11h164.8
							C168.2-465.2,172.4-479.4,173.5-494.5"/>
					</g>
					<g id="g31" transform="translate(446.1169,447.1357)">
						<path id="path33" class="st1" d="M173.5-505c-1.1-15.1-5.3-29.3-12-42.1H-9.4c-15.2,0-29.7,6.2-40.3,17.1l-6.5,6.7
							c-6.6,6.8-1.7,18.2,7.8,18.2H173.5z"/>
					</g>
					<g id="g35" transform="translate(438.2062,426.5732)">
						<path id="path37" class="st1" d="M159-542.7c-19.8-25.6-50.9-42.1-85.8-42.1c-25.4,0-48.8,8.7-67.3,23.4
							c-7.8,6.2-3.4,18.7,6.5,18.7H159z"/>
					</g>
					<g id="g39" transform="translate(438.2492,473.4199)">
						<path id="path41" class="st1" d="M159.1-456.8H10.9c-2.7,0-5.2,1-7.1,2.9c-4.2,4.2-4,11.1,0.6,14.9
							c17.4,14.2,39.2,23.1,63.1,24.3h11.1C111.4-416.4,140.3-432.5,159.1-456.8"/>
					</g>
					<g id="g43" transform="translate(469.8756,472.9355)">
						<path id="path45" class="st1" d="M217.1-457.7h61.5l34.3-88.3h0.2l33.5,88.3h59v-126.8h-37v101.6h-0.4l-40.1-101.6h-34.5
							l-40.3,101.6h-0.4v-101.6h-35.8V-457.7z"/>
					</g>
					<g id="g47" transform="translate(591.7272,450.7021)">
						<path id="path49" class="st1" d="M440.6-498.5c0,20.6-14.3,38-44.3,38s-44.3-17.3-44.3-38c0-22.7,14.1-38.7,44.3-38.7
							C427.3-537.2,440.6-520.2,440.6-498.5 M313.1-498.3c0,35.1,26,65.1,83.3,65.1c57.2,0,83.3-30.1,83.3-65.1
							c0-36-24.1-66.3-83.3-66.3C338.9-564.6,313.1-536.2,313.1-498.3"/>
					</g>
					<g id="g51" transform="translate(609.2067,472.9355)">
						<path id="path53" class="st1" d="M472.7-457.7h42.2l50.3-97.1h0.2l49.5,97.1h37.8l-67.8-126.8h-44.3L472.7-457.7z"/>
					</g>
					<g id="g55" transform="translate(710.7955,451.9258)">
						<path id="path57" class="st1" d="M659.1-496.2c18.3,0,24.9,6.7,24.9,16.6c0,9.1-6.7,15.6-28.1,15.6h-41.2v-32.2H659.1z
							 M577.6-436.7h79.8c47,0,61.7-14.8,61.7-37.6c0-12.7-5.4-25.1-22.9-30.3v-0.4c20-4.6,22.2-18.7,22.2-32v-26.6h-37v26.6
							c0,13.1-5,19.1-20.8,19.1h-45.9v-45.7h-37V-436.7z"/>
					</g>
					<g id="g59" transform="translate(763.899,458.6094)">
						<path id="path61" class="st1" d="M756.5-484c11.3,0,15.7,5.2,15.7,14.8c0,8.3-4.4,14.8-16.7,14.8h-12.1V-484H756.5z
							 M728.1-443h26.6c24.5,0,32.8-11.3,32.8-26.1c0-16.7-8.4-26.1-30.5-26.1h-28.9V-443z"/>
					</g>
					<g id="g63" transform="translate(797.4352,463.9014)">
						<path id="path65" class="st1" d="M818-474.2c0,8.5-5.9,15.6-18.3,15.6c-12.4,0-18.3-7.1-18.3-15.6c0-9.4,5.8-16,18.3-16
							C812.6-490.2,818-483.2,818-474.2 M765.5-474.2c0,14.4,10.7,26.8,34.3,26.8c23.6,0,34.3-12.4,34.3-26.8
							c0-14.8-9.9-27.3-34.3-27.3C776.1-501.5,765.5-489.8,765.5-474.2"/>
					</g>
					<g id="g67" transform="translate(807.7867,473.0576)">
						<path id="path69" class="st1" d="M837-457.4h25.3l14.1-36.4h0.1l13.8,36.4h24.3v-52.2h-15.2v41.8h-0.2l-16.5-41.8h-14.2
							L852-467.8h-0.2v-41.8H837V-457.4z"/>
					</g>
					<g id="g71" transform="translate(856.1344,461.5215)">
						<path id="path73" class="st1" d="M925.7-478.6l-10.9,21.3h-0.1L904-478.6H925.7z M930.3-487.5h-30.7l-5.4-10.6h-15.7
							l28.4,52.2h18.1l28.4-52.2h-17.7L930.3-487.5z"/>
					</g>
					<path id="path75" class="st1" d="M1822,15.6h15.2v-52.2H1822V15.6z"/>
					<g id="g77" transform="translate(882.1222,473.0576)">
						<path id="path79" class="st1" d="M973.4-457.4h21.3l27.9-31.4h0.1v31.4h14.8v-52.2h-15.1l-34,38.4h-0.1v-38.4h-14.8V-457.4z"
							/>
					</g>
					<g id="g81" transform="translate(765.7189,438.4053)">
						<path id="path83" class="st1" d="M759.9-521c7.5,0,10.2,2.8,10.2,6.8c0,3.7-2.8,6.4-11.6,6.4h-17V-521H759.9z M726.3-496.5
							h32.9c19.4,0,25.4-6.1,25.4-15.5c0-5.2-2.2-10.3-9.4-12.5v-0.2c8.3-1.9,9.1-7.7,9.1-13.2v-11H769v11c0,5.4-2.1,7.9-8.6,7.9
							h-18.9v-18.8h-15.2V-496.5z"/>
					</g>
					<g id="g85" transform="translate(779.6827,447.0576)">
						<path id="path87" class="st1" d="M785.5-505.1h49.4v-11.3h-34.1v-10.2h26.2v-8.9h-26.2v-10.6h34.9v-11.3h-50.2V-505.1z"/>
					</g>
					<g id="g89" transform="translate(800.6188,437.5937)">
						<path id="path91" class="st1" d="M823.9-522.5c0,15.1,10.2,27.8,32.9,27.8c22.9,0,29.8-10.1,29.8-19.8c0-0.2,0-0.6-0.1-1.1
							h-13.6v0.6c0,4-4,9.1-15.6,9.1c-12,0-17.8-7.2-17.8-16.6c0-8.8,4.8-16.2,17.5-16.2c10.9,0,15,5.8,15,9.5v0.2h-16.8v8.1h32.1
							v-27h-11.7c0.1,2.3,0.2,6.7,0.2,10.6h-0.2c-1.7-6.7-8-11.5-21-11.5C832.2-548.9,823.9-536.2,823.9-522.5"/>
					</g>
					<path id="path93" class="st1" d="M1702.4-58.1h15.2v-52.2h-15.2V-58.1z"/>
					<g id="g95" transform="translate(838.5704,434.8213)">
						<path id="path97" class="st1" d="M893.5-527.6h13.7c0-4.4,3.2-8,16.3-8c13.8,0,16.1,2.8,16.1,6.3c0,2.1-1.3,3.4-4.1,4.1
							c-3.3,0.7-11.3,1-17.1,1.3c-6.9,0.4-14.5,1.3-18.8,3.5c-3.8,2-6.3,5.7-6.3,10.8c0,9.7,9.4,17.6,30.1,17.6
							c24.8,0,29.1-8.6,29.1-18h-13.7c0,4.8-4.7,7.5-15.5,7.5c-10.5,0-14.8-2.3-14.8-6c0-2,1.1-3.2,3.3-3.9
							c2.9-0.9,10.7-1.2,16.6-1.6c7.6-0.5,14.1-1.1,18.6-2.9c5-2.1,7.9-6.2,7.9-11.2c0-8.3-4.4-18-31.4-18
							C896.3-546.1,893.5-534.6,893.5-527.6"/>
					</g>
					<g id="g99" transform="translate(870.5382,443.082)">
						<path id="path101" class="st1" d="M952.2-512.4h-20.6v11.3H988v-11.3h-20.6v-41h-15.2V-512.4z"/>
					</g>
					<g id="g103" transform="translate(899.4259,438.4053)">
						<path id="path105" class="st1" d="M1005.2-521c7.5,0,10.2,2.8,10.2,6.8c0,3.7-2.8,6.4-11.6,6.4h-17V-521H1005.2z M971.6-496.5
							h32.9c19.4,0,25.4-6.1,25.4-15.5c0-5.2-2.2-10.3-9.4-12.5v-0.2c8.3-1.9,9.1-7.7,9.1-13.2v-11h-15.2v11c0,5.4-2.1,7.9-8.6,7.9
							h-18.9v-18.8h-15.2V-496.5z"/>
					</g>
					<g id="g107" transform="translate(920.67,436.1094)">
						<path id="path109" class="st1" d="M1044.1-525.2l-28.3,31h20.3l16.9-19h0.2l16.7,19h17.8l-28.4-31v-21.2h-15.2V-525.2z"/>
					</g>
				</g>
			</g>
		</g>
	</g>
</g>
<g>
	<g>
		<defs>
			<rect id="SVGID_00000040551565020642814320000000456632370322233482_" x="-352.4" y="-19.9" width="1300" height="900"/>
		</defs>
		<clipPath id="SVGID_00000128477803508779884180000010901187719288932525_">
			<use xlink:href="#SVGID_00000040551565020642814320000000456632370322233482_"  style="overflow:visible;"/>
		</clipPath>
		<g style="clip-path:url(#SVGID_00000128477803508779884180000010901187719288932525_);">
			<defs>
				<rect id="SVGID_00000147922664823544433590000004388783182456049841_" x="-352.4" y="-19.9" width="1300" height="900"/>
			</defs>
			<clipPath id="SVGID_00000134961514938667409540000008230751550363858090_">
				<use xlink:href="#SVGID_00000147922664823544433590000004388783182456049841_"  style="overflow:visible;"/>
			</clipPath>
			<path style="clip-path:url(#SVGID_00000134961514938667409540000008230751550363858090_);" d="M93.8,427.2H14.3
				c-2.6,0-3.7-3.3-1.7-4.9l7.7-6.1c3.2-2.5,7.1-3.9,11.2-3.9h58.1C91.9,416.9,93.4,421.9,93.8,427.2"/>
			<path style="clip-path:url(#SVGID_00000134961514938667409540000008230751550363858090_);" d="M93.8,432.9
				c-0.4,5.3-1.9,10.3-4.2,14.8H29.2c-5.4,0-10.5-2.2-14.2-6l-2.3-2.4c-2.3-2.4-0.6-6.4,2.7-6.4H93.8z"/>
			<path style="clip-path:url(#SVGID_00000134961514938667409540000008230751550363858090_);" d="M85.8,453.5
				c-7,9-18,14.8-30.3,14.8c-9,0-17.2-3.1-23.7-8.2c-2.7-2.2-1.2-6.6,2.3-6.6H85.8z"/>
			<path style="clip-path:url(#SVGID_00000134961514938667409540000008230751550363858090_);" d="M85.9,406.6H33.6
				c-0.9,0-1.8-0.4-2.5-1c-1.5-1.5-1.4-3.9,0.2-5.2c6.1-5,13.8-8.2,22.3-8.6h3.9C69.1,392.4,79.3,398.1,85.9,406.6"/>
			<polygon style="clip-path:url(#SVGID_00000134961514938667409540000008230751550363858090_);" points="117.5,407.1 139.2,407.1 
				151.3,438.3 151.4,438.3 163.2,407.1 184,407.1 184,451.9 171,451.9 171,416 170.8,416 156.7,451.9 144.5,451.9 130.3,416 
				130.2,416 130.2,451.9 117.5,451.9 			"/>
			<path style="clip-path:url(#SVGID_00000134961514938667409540000008230751550363858090_);" d="M194.4,429.3
				c0-12.4,9.2-23,29.4-23c20.2,0,29.4,10.6,29.4,23c0,12.7-8.5,23.4-29.4,23.4C203.5,452.7,194.4,442.7,194.4,429.3 M239.4,429.4
				c0-7.3-5-13.4-15.6-13.4s-15.6,6.1-15.6,13.4c0,8,5,13.7,15.6,13.7C234.7,443,239.4,437,239.4,429.4"/>
			<polygon style="clip-path:url(#SVGID_00000134961514938667409540000008230751550363858090_);" points="256.8,407.1 271.7,407.1 
				289.5,441.4 289.5,441.4 307,407.1 320.4,407.1 296.4,451.9 280.8,451.9 			"/>
			<path style="clip-path:url(#SVGID_00000134961514938667409540000008230751550363858090_);" d="M329.7,407.1h28.1
				c16.6,0,21.8,5.2,21.8,13.3c0,4.5-1.9,8.8-8.1,10.7v0.1c7.1,1.6,7.8,6.6,7.8,11.3v9.4h-13.1v-9.4c0-4.6-1.8-6.7-7.3-6.7h-16.2
				v16.1h-13.1V407.1z M358.4,428.1c6.5,0,8.8-2.4,8.8-5.8c0-3.2-2.4-5.5-9.9-5.5h-14.6v11.4H358.4z"/>
			<path style="clip-path:url(#SVGID_00000134961514938667409540000008230751550363858090_);" d="M401.5,407h9.4
				c8.7,0,11.6,4,11.6,9.2c0,5.9-3,9.2-10.8,9.2h-10.2V407z M411.5,421.5c4,0,5.5-1.8,5.5-5.2c0-2.9-1.6-5.2-5.9-5.2h-4.3v10.5
				H411.5z"/>
			<path style="clip-path:url(#SVGID_00000134961514938667409540000008230751550363858090_);" d="M426.5,416.1
				c0-5.1,3.8-9.5,12.1-9.5c8.3,0,12.1,4.4,12.1,9.5c0,5.2-3.5,9.6-12.1,9.6C430.3,425.8,426.5,421.7,426.5,416.1 M445.1,416.2
				c0-3-2.1-5.5-6.4-5.5c-4.4,0-6.4,2.5-6.4,5.5c0,3.3,2,5.6,6.4,5.6C443.1,421.8,445.1,419.3,445.1,416.2"/>
			<polygon style="clip-path:url(#SVGID_00000134961514938667409540000008230751550363858090_);" points="455.4,407 464.4,407 
				469.3,419.8 469.4,419.8 474.2,407 482.8,407 482.8,425.4 477.4,425.4 477.4,410.7 477.4,410.7 471.6,425.4 466.5,425.4 
				460.7,410.7 460.6,410.7 460.6,425.4 455.4,425.4 			"/>
			<path style="clip-path:url(#SVGID_00000134961514938667409540000008230751550363858090_);" d="M505.4,421.7h-10.8l-1.9,3.8h-5.5
				l10-18.4h6.4l10,18.4h-6.2L505.4,421.7z M503.8,418.5l-3.8-7.5h0l-3.8,7.5H503.8z"/>
			
				<rect x="517.9" y="407" style="clip-path:url(#SVGID_00000134961514938667409540000008230751550363858090_);" width="5.4" height="18.4"/>
			<polygon style="clip-path:url(#SVGID_00000134961514938667409540000008230751550363858090_);" points="529.8,407 537.3,407 
				547.1,418.1 547.1,418.1 547.1,407 552.3,407 552.3,425.4 547,425.4 535,411.9 535,411.9 535,425.4 529.8,425.4 			"/>
			<path style="clip-path:url(#SVGID_00000134961514938667409540000008230751550363858090_);" d="M401.5,433h11.6c6.8,0,9,2.2,9,5.5
				c0,1.8-0.8,3.6-3.3,4.4v0.1c2.9,0.7,3.2,2.7,3.2,4.6v3.9h-5.4v-3.9c0-1.9-0.7-2.8-3-2.8h-6.7v6.6h-5.4V433z M413.4,441.7
				c2.7,0,3.6-1,3.6-2.4c0-1.3-1-2.3-4.1-2.3h-6v4.7H413.4z"/>
			<polygon style="clip-path:url(#SVGID_00000134961514938667409540000008230751550363858090_);" points="427.3,433 444.7,433 
				444.7,437 432.7,437 432.7,440.6 441.9,440.6 441.9,443.7 432.7,443.7 432.7,447.5 445,447.5 445,451.4 427.3,451.4 			"/>
			<path style="clip-path:url(#SVGID_00000134961514938667409540000008230751550363858090_);" d="M448.3,442.5
				c0-5.3,3.6-9.8,11.6-9.8c8.1,0,10.5,3.6,10.5,7c0,0.1,0,0.2,0,0.4h-4.8v-0.2c0-1.4-1.4-3.2-5.5-3.2c-4.2,0-6.3,2.5-6.3,5.9
				c0,3.1,1.7,5.7,6.2,5.7c3.8,0,5.3-2,5.3-3.4v-0.1h-5.9v-2.9h11.3v9.5h-4.1c0-0.8,0.1-2.4,0.1-3.7h-0.1c-0.6,2.4-2.8,4.1-7.4,4.1
				C451.2,451.8,448.3,447.3,448.3,442.5"/>
			
				<rect x="475.7" y="433" style="clip-path:url(#SVGID_00000134961514938667409540000008230751550363858090_);" width="5.4" height="18.4"/>
			<path style="clip-path:url(#SVGID_00000134961514938667409540000008230751550363858090_);" d="M486.2,445.2h4.8
				c0,1.6,1.1,2.8,5.7,2.8c4.9,0,5.7-1,5.7-2.2c0-0.8-0.5-1.2-1.5-1.4c-1.1-0.3-4-0.4-6-0.5c-2.4-0.1-5.1-0.4-6.6-1.2
				c-1.3-0.7-2.2-2-2.2-3.8c0-3.4,3.3-6.2,10.6-6.2c8.8,0,10.3,3,10.3,6.4h-4.8c0-1.7-1.7-2.7-5.5-2.7c-3.7,0-5.2,0.8-5.2,2.1
				c0,0.7,0.4,1.1,1.2,1.4c1,0.3,3.8,0.4,5.9,0.6c2.7,0.2,5,0.4,6.6,1c1.8,0.7,2.8,2.2,2.8,3.9c0,2.9-1.6,6.4-11.1,6.4
				C487.2,451.8,486.2,447.7,486.2,445.2"/>
			<polygon style="clip-path:url(#SVGID_00000134961514938667409540000008230751550363858090_);" points="518.2,437 510.9,437 
				510.9,433 530.8,433 530.8,437 523.6,437 523.6,451.4 518.2,451.4 			"/>
			<path style="clip-path:url(#SVGID_00000134961514938667409540000008230751550363858090_);" d="M535.2,433h11.6c6.8,0,9,2.2,9,5.5
				c0,1.8-0.8,3.6-3.3,4.4v0.1c2.9,0.7,3.2,2.7,3.2,4.6v3.9h-5.4v-3.9c0-1.9-0.7-2.8-3-2.8h-6.7v6.6h-5.4V433z M547.1,441.7
				c2.7,0,3.6-1,3.6-2.4c0-1.3-1-2.3-4.1-2.3h-6v4.7H547.1z"/>
			<polygon style="clip-path:url(#SVGID_00000134961514938667409540000008230751550363858090_);" points="568.3,444 558.3,433 
				565.5,433 571.4,439.7 571.5,439.7 577.4,433 583.7,433 573.7,444 573.7,451.4 568.3,451.4 			"/>
		</g>
	</g>
</g>
</svg>
