<?xml version="1.0" encoding="utf-8"?>
<!-- Generator: Adobe Illustrator 26.0.2, SVG Export Plug-In . SVG Version: 6.00 Build 0)  -->
<svg version="1.1" id="svg5" xmlns:svg="http://www.w3.org/2000/svg"
	 xmlns="http://www.w3.org/2000/svg" xmlns:xlink="http://www.w3.org/1999/xlink" x="0px" y="0px" viewBox="0 0 595.3 841.9"
	 style="enable-background:new 0 0 595.3 841.9;" xml:space="preserve">
<style type="text/css">
	.st0{clip-path:url(#SVGID_00000083060103505241241940000010692066006958618006_);}
	.st1{fill:#FFFFFF;}
</style>
<g id="layer1">
	<g id="g15" transform="matrix(0.35277777,0,0,-0.35277777,-127.2437,289.72938)">
		<g id="g19">
			<g>
				<defs>
					<rect id="SVGID_1_" x="547.6" y="-499.8" width="1300" height="900"/>
				</defs>
				<clipPath id="SVGID_00000016047240545666842700000004049402807852409765_">
					<use xlink:href="#SVGID_1_"  style="overflow:visible;"/>
				</clipPath>
				<g id="g21" style="clip-path:url(#SVGID_00000016047240545666842700000004049402807852409765_);">
					<g id="g27" transform="translate(446.1169,452.8574)">
						<path id="path29" class="st1" d="M173.5-494.5H-51.7c-7.3,0-10.6,9.2-4.8,13.8l21.7,17.2c9,7.1,20.1,11,31.6,11h164.8
							C168.2-465.2,172.4-479.4,173.5-494.5"/>
					</g>
					<g id="g31" transform="translate(446.1169,447.1357)">
						<path id="path33" class="st1" d="M173.5-505c-1.1-15.1-5.3-29.3-12-42.1H-9.4c-15.2,0-29.7,6.2-40.3,17.1l-6.5,6.7
							c-6.6,6.8-1.7,18.2,7.8,18.2H173.5z"/>
					</g>
					<g id="g35" transform="translate(438.2062,426.5732)">
						<path id="path37" class="st1" d="M159-542.7c-19.8-25.6-50.9-42.1-85.8-42.1c-25.4,0-48.8,8.7-67.3,23.4
							c-7.8,6.2-3.4,18.7,6.5,18.7H159z"/>
					</g>
					<g id="g39" transform="translate(438.2492,473.4199)">
						<path id="path41" class="st1" d="M159.1-456.8H10.9c-2.7,0-5.2,1-7.1,2.9c-4.2,4.2-4,11.1,0.6,14.9
							c17.4,14.2,39.2,23.1,63.1,24.3h11.1C111.4-416.4,140.3-432.5,159.1-456.8"/>
					</g>
					<g id="g43" transform="translate(469.8756,472.9355)">
						<path id="path45" class="st1" d="M217.1-457.7h61.5l34.3-88.3h0.2l33.5,88.3h59v-126.8h-37v101.6h-0.4l-40.1-101.6h-34.5
							l-40.3,101.6h-0.4v-101.6h-35.8V-457.7z"/>
					</g>
					<g id="g47" transform="translate(591.7272,450.7021)">
						<path id="path49" class="st1" d="M440.6-498.5c0,20.6-14.3,38-44.3,38s-44.3-17.3-44.3-38c0-22.7,14.1-38.7,44.3-38.7
							C427.3-537.2,440.6-520.2,440.6-498.5 M313.1-498.3c0,35.1,26,65.1,83.3,65.1c57.2,0,83.3-30.1,83.3-65.1
							c0-36-24.1-66.3-83.3-66.3C338.9-564.6,313.1-536.2,313.1-498.3"/>
					</g>
					<g id="g51" transform="translate(609.2067,472.9355)">
						<path id="path53" class="st1" d="M472.7-457.7h42.2l50.3-97.1h0.2l49.5,97.1h37.8l-67.8-126.8h-44.3L472.7-457.7z"/>
					</g>
					<g id="g55" transform="translate(710.7955,451.9258)">
						<path id="path57" class="st1" d="M659.1-496.2c18.3,0,24.9,6.7,24.9,16.6c0,9.1-6.7,15.6-28.1,15.6h-41.2v-32.2H659.1z
							 M577.6-436.7h79.8c47,0,61.7-14.8,61.7-37.6c0-12.7-5.4-25.1-22.9-30.3v-0.4c20-4.6,22.2-18.7,22.2-32v-26.6h-37v26.6
							c0,13.1-5,19.1-20.8,19.1h-45.9v-45.7h-37V-436.7z"/>
					</g>
					<g id="g59" transform="translate(763.899,458.6094)">
						<path id="path61" class="st1" d="M756.5-484c11.3,0,15.7,5.2,15.7,14.8c0,8.3-4.4,14.8-16.7,14.8h-12.1V-484H756.5z
							 M728.1-443h26.6c24.5,0,32.8-11.3,32.8-26.1c0-16.7-8.4-26.1-30.5-26.1h-28.9V-443z"/>
					</g>
					<g id="g63" transform="translate(797.4352,463.9014)">
						<path id="path65" class="st1" d="M818-474.2c0,8.5-5.9,15.6-18.3,15.6c-12.4,0-18.3-7.1-18.3-15.6c0-9.4,5.8-16,18.3-16
							C812.6-490.2,818-483.2,818-474.2 M765.5-474.2c0,14.4,10.7,26.8,34.3,26.8c23.6,0,34.3-12.4,34.3-26.8
							c0-14.8-9.9-27.3-34.3-27.3C776.1-501.5,765.5-489.8,765.5-474.2"/>
					</g>
					<g id="g67" transform="translate(807.7867,473.0576)">
						<path id="path69" class="st1" d="M837-457.4h25.3l14.1-36.4h0.1l13.8,36.4h24.3v-52.2h-15.2v41.8h-0.2l-16.5-41.8h-14.2
							L852-467.8h-0.2v-41.8H837V-457.4z"/>
					</g>
					<g id="g71" transform="translate(856.1344,461.5215)">
						<path id="path73" class="st1" d="M925.7-478.6l-10.9,21.3h-0.1L904-478.6H925.7z M930.3-487.5h-30.7l-5.4-10.6h-15.7
							l28.4,52.2h18.1l28.4-52.2h-17.7L930.3-487.5z"/>
					</g>
					<path id="path75" class="st1" d="M1822,15.6h15.2v-52.2H1822V15.6z"/>
					<g id="g77" transform="translate(882.1222,473.0576)">
						<path id="path79" class="st1" d="M973.4-457.4h21.3l27.9-31.4h0.1v31.4h14.8v-52.2h-15.1l-34,38.4h-0.1v-38.4h-14.8V-457.4z"
							/>
					</g>
					<g id="g81" transform="translate(765.7189,438.4053)">
						<path id="path83" class="st1" d="M759.9-521c7.5,0,10.2,2.8,10.2,6.8c0,3.7-2.8,6.4-11.6,6.4h-17V-521H759.9z M726.3-496.5
							h32.9c19.4,0,25.4-6.1,25.4-15.5c0-5.2-2.2-10.3-9.4-12.5v-0.2c8.3-1.9,9.1-7.7,9.1-13.2v-11H769v11c0,5.4-2.1,7.9-8.6,7.9
							h-18.9v-18.8h-15.2V-496.5z"/>
					</g>
					<g id="g85" transform="translate(779.6827,447.0576)">
						<path id="path87" class="st1" d="M785.5-505.1h49.4v-11.3h-34.1v-10.2h26.2v-8.9h-26.2v-10.6h34.9v-11.3h-50.2V-505.1z"/>
					</g>
					<g id="g89" transform="translate(800.6188,437.5937)">
						<path id="path91" class="st1" d="M823.9-522.5c0,15.1,10.2,27.8,32.9,27.8c22.9,0,29.8-10.1,29.8-19.8c0-0.2,0-0.6-0.1-1.1
							h-13.6v0.6c0,4-4,9.1-15.6,9.1c-12,0-17.8-7.2-17.8-16.6c0-8.8,4.8-16.2,17.5-16.2c10.9,0,15,5.8,15,9.5v0.2h-16.8v8.1h32.1
							v-27h-11.7c0.1,2.3,0.2,6.7,0.2,10.6h-0.2c-1.7-6.7-8-11.5-21-11.5C832.2-548.9,823.9-536.2,823.9-522.5"/>
					</g>
					<path id="path93" class="st1" d="M1702.4-58.1h15.2v-52.2h-15.2V-58.1z"/>
					<g id="g95" transform="translate(838.5704,434.8213)">
						<path id="path97" class="st1" d="M893.5-527.6h13.7c0-4.4,3.2-8,16.3-8c13.8,0,16.1,2.8,16.1,6.3c0,2.1-1.3,3.4-4.1,4.1
							c-3.3,0.7-11.3,1-17.1,1.3c-6.9,0.4-14.5,1.3-18.8,3.5c-3.8,2-6.3,5.7-6.3,10.8c0,9.7,9.4,17.6,30.1,17.6
							c24.8,0,29.1-8.6,29.1-18h-13.7c0,4.8-4.7,7.5-15.5,7.5c-10.5,0-14.8-2.3-14.8-6c0-2,1.1-3.2,3.3-3.9
							c2.9-0.9,10.7-1.2,16.6-1.6c7.6-0.5,14.1-1.1,18.6-2.9c5-2.1,7.9-6.2,7.9-11.2c0-8.3-4.4-18-31.4-18
							C896.3-546.1,893.5-534.6,893.5-527.6"/>
					</g>
					<g id="g99" transform="translate(870.5382,443.082)">
						<path id="path101" class="st1" d="M952.2-512.4h-20.6v11.3H988v-11.3h-20.6v-41h-15.2V-512.4z"/>
					</g>
					<g id="g103" transform="translate(899.4259,438.4053)">
						<path id="path105" class="st1" d="M1005.2-521c7.5,0,10.2,2.8,10.2,6.8c0,3.7-2.8,6.4-11.6,6.4h-17V-521H1005.2z M971.6-496.5
							h32.9c19.4,0,25.4-6.1,25.4-15.5c0-5.2-2.2-10.3-9.4-12.5v-0.2c8.3-1.9,9.1-7.7,9.1-13.2v-11h-15.2v11c0,5.4-2.1,7.9-8.6,7.9
							h-18.9v-18.8h-15.2V-496.5z"/>
					</g>
					<g id="g107" transform="translate(920.67,436.1094)">
						<path id="path109" class="st1" d="M1044.1-525.2l-28.3,31h20.3l16.9-19h0.2l16.7,19h17.8l-28.4-31v-21.2h-15.2V-525.2z"/>
					</g>
				</g>
			</g>
		</g>
	</g>
</g>
</svg>
