<?xml version="1.0" encoding="utf-8"?>
<!-- Generator: Adobe Illustrator 26.0.2, SVG Export Plug-In . SVG Version: 6.00 Build 0)  -->
<svg version="1.1" id="Layer_1" xmlns="http://www.w3.org/2000/svg" xmlns:xlink="http://www.w3.org/1999/xlink" x="0px" y="0px"
	 viewBox="0 0 500 300" style="enable-background:new 0 0 500 300;" xml:space="preserve">
<style type="text/css">
	.st0{fill:#FFFFFF;}
</style>
<path class="st0" d="M184.6,146.8h-79.5c-2.6,0-3.7-3.3-1.7-4.9l7.7-6.1c3.2-2.5,7.1-3.9,11.2-3.9h58.1
	C182.7,136.4,184.2,141.5,184.6,146.8z"/>
<path class="st0" d="M184.6,152.5c-0.4,5.3-1.9,10.3-4.2,14.8H120c-5.4,0-10.5-2.2-14.2-6l-2.3-2.4c-2.3-2.4-0.6-6.4,2.7-6.4H184.6z
	"/>
<path class="st0" d="M176.6,173.1c-7,9-18,14.8-30.3,14.8c-9,0-17.2-3.1-23.7-8.3c-2.7-2.2-1.2-6.6,2.3-6.6H176.6z"/>
<path class="st0" d="M176.7,126.2h-52.3c-0.9,0-1.8-0.4-2.5-1l0,0c-1.5-1.5-1.4-3.9,0.2-5.2c6.1-5,13.8-8.2,22.3-8.6h3.9
	C159.9,112,170.1,117.6,176.7,126.2z"/>
</svg>
