<?xml version="1.0" encoding="utf-8"?>
<!-- Generator: Adobe Illustrator 26.0.1, SVG Export Plug-In . SVG Version: 6.00 Build 0)  -->
<svg version="1.1" id="Layer_1" xmlns="http://www.w3.org/2000/svg" xmlns:xlink="http://www.w3.org/1999/xlink" x="0px" y="0px"
	 viewBox="0 0 900 300" style="enable-background:new 0 0 900 300;" xml:space="preserve">
<style type="text/css">
	.st0{fill:#FFFFFF;}
</style>
<g>
	<path class="st0" d="M134.5,147h-123c-4,0-5.7-5.1-2.6-7.6l11.9-9.4c5-3.9,11-6,17.3-6H128C131.7,131,133.9,138.8,134.5,147z"/>
	<path class="st0" d="M134.5,155.9c-0.6,8.2-2.9,15.9-6.5,22.9H34.8c-8.4,0-16.2-3.4-22-9.3l-3.6-3.7c-3.6-3.7-0.9-9.9,4.2-9.9
		L134.5,155.9L134.5,155.9z"/>
	<path class="st0" d="M122.3,187.6c-10.8,13.9-27.8,22.9-46.9,22.9c-13.9,0-26.6-4.8-36.7-12.8c-4.2-3.4-1.9-10.2,3.6-10.2h80V187.6
		z"/>
	<path class="st0" d="M122.5,115.2H41.6c-1.4,0-2.8-0.6-3.9-1.5l0,0c-2.3-2.3-2.2-6,0.3-8c9.4-7.7,21.3-12.7,34.5-13.3h6
		C96.3,93.1,112.1,101.9,122.5,115.2z"/>
	<g>
		<path class="st0" d="M171.3,116h33.6l18.7,48.1h0.2L242,116h32.2v69.1H254v-55.4h-0.2L232,185.2h-18.9l-22-55.4H191v55.4h-19.6
			V116z"/>
		<path class="st0" d="M290.1,150.2c0-19.2,14.2-35.6,45.5-35.6s45.5,16.4,45.5,35.6c0,19.6-13.1,36.2-45.5,36.2
			C304.2,186.4,290.1,170.9,290.1,150.2z M359.8,150.4c0-11.3-7.7-20.7-24.1-20.7c-16.4,0-24.1,9.4-24.1,20.7
			c0,12.4,7.7,21.2,24.1,21.2C352.5,171.6,359.8,162.3,359.8,150.4z"/>
		<path class="st0" d="M386.8,116h23l27.4,53.1h0.2l27.1-53.1h20.6l-37,69.1H424L386.8,116z"/>
		<path class="st0" d="M499.4,116h43.5c25.7,0,33.7,8,33.7,20.6c0,7-2.9,13.6-12.5,16.6v0.2c11,2.5,12.1,10.2,12.1,17.5v14.5h-20.3
			v-14.5c0-7.1-2.8-10.4-11.3-10.4h-25.1v24.9h-20.3V116H499.4z M544,148.5c10.1,0,13.6-3.7,13.6-9c0-5-3.7-8.5-15.3-8.5h-22.4v17.5
			H544z"/>
	</g>
	<path class="st0" d="M610.7,115.7h14.5c13.5,0,17.9,6.2,17.9,14.2c0,9.1-4.6,14.2-16.7,14.2h-15.8V115.7z M626.1,138.1
		c6.2,0,8.5-2.8,8.5-8c0-4.5-2.5-8-9.1-8h-6.7v16.2h7.3V138.1z"/>
	<path class="st0" d="M649.3,129.9c0-7.9,5.9-14.7,18.7-14.7c12.8,0,18.7,6.8,18.7,14.7c0,8-5.4,14.9-18.7,14.9
		C655.2,144.8,649.3,138.5,649.3,129.9z M678,129.9c0-4.6-3.2-8.5-9.9-8.5c-6.8,0-9.9,3.9-9.9,8.5c0,5.1,3.1,8.7,9.9,8.7
		C675,138.6,678,134.9,678,129.9z"/>
	<path class="st0" d="M694,115.7h13.8l7.7,19.8l0,0l7.6-19.8h13.3v28.5h-8.4v-22.9h-0.2l-9,22.9h-7.7l-9.1-22.9h-0.2v22.9h-8v-28.5
		H694z"/>
	<path class="st0" d="M771.2,138.5h-16.7l-2.9,5.9h-8.5l15.5-28.5h9.9l15.5,28.5h-9.6L771.2,138.5z M768.8,133.7l-5.9-11.6l0,0
		l-5.9,11.6H768.8z"/>
	<path class="st0" d="M790.7,115.7h8.4v28.5h-8.4V115.7z"/>
	<path class="st0" d="M809,115.7h11.6l15.2,17.2l0,0v-17.2h8v28.5h-8.2l-18.6-21l0,0v21h-8V115.7z"/>
	<path class="st0" d="M610.7,155.9h17.9c10.5,0,13.9,3.4,13.9,8.5c0,2.8-1.2,5.6-5.1,6.8v0.2c4.5,1.1,5,4.2,5,7.1v6h-8.5v-6
		c0-2.9-1.1-4.3-4.6-4.3h-10.4v10.2h-8.2V155.9z M628.9,169.4c4.2,0,5.6-1.5,5.6-3.7c0-2-1.5-3.6-6.3-3.6h-9.3v7.3H628.9z"/>
	<path class="st0" d="M650.6,155.9h26.9v6.2h-18.6v5.6h14.2v4.8h-14.2v5.7h19v6.2h-27.4V155.9z"/>
	<path class="st0" d="M682.9,170.6c0-8.2,5.6-15.2,17.9-15.2c12.5,0,16.2,5.6,16.2,10.8c0,0.2,0,0.3,0,0.6h-7.4v-0.3
		c0-2.2-2.2-5-8.5-5c-6.5,0-9.7,3.9-9.7,9.1c0,4.8,2.6,8.8,9.6,8.8c5.9,0,8.2-3.1,8.2-5.3v-0.2h-9.1v-4.5h17.5v14.7h-6.3
		c0-1.2,0.2-3.7,0.2-5.7h-0.2c-0.9,3.7-4.3,6.3-11.4,6.3C687.6,185,682.9,178.2,682.9,170.6z"/>
	<path class="st0" d="M725.5,155.9h8.4v28.5h-8.4V155.9z"/>
	<path class="st0" d="M741.7,175h7.4c0,2.5,1.7,4.3,8.8,4.3c7.6,0,8.8-1.5,8.8-3.4c0-1.2-0.8-1.9-2.3-2.2c-1.7-0.5-6.2-0.6-9.3-0.8
		c-3.7-0.2-7.9-0.6-10.2-1.9c-2-1.1-3.4-3.1-3.4-5.9c0-5.3,5.1-9.6,16.4-9.6c13.6,0,15.9,4.6,15.9,9.9h-7.4c0-2.6-2.6-4.2-8.5-4.2
		c-5.7,0-8,1.2-8,3.2c0,1.1,0.6,1.7,1.9,2.2c1.5,0.5,5.9,0.6,9.1,0.9c4.2,0.3,7.7,0.6,10.2,1.5c2.8,1.1,4.3,3.4,4.3,6
		c0,4.5-2.5,9.9-17.2,9.9C743.2,185,741.7,178.7,741.7,175z"/>
	<path class="st0" d="M791,162.1h-11.3v-6.2h30.8v6.2h-11.1v22.3H791V162.1z"/>
	<path class="st0" d="M817.5,155.9h17.9c10.5,0,13.9,3.4,13.9,8.5c0,2.8-1.2,5.6-5.1,6.8v0.2c4.5,1.1,5,4.2,5,7.1v6h-8.4v-6
		c0-2.9-1.1-4.3-4.6-4.3h-10.4v10.2h-8.4L817.5,155.9L817.5,155.9z M835.7,169.4c4.2,0,5.6-1.5,5.6-3.7c0-2-1.5-3.6-6.3-3.6h-9.3
		v7.3H835.7z"/>
	<path class="st0" d="M868.7,172.9l-15.5-16.9h11.1l9.3,10.4h0.2l9.1-10.4h9.7l-15.5,16.9v11.6h-8.4v-11.6H868.7z"/>
</g>
</svg>
