<?xml version="1.0" encoding="utf-8"?>
<!-- Generator: Adobe Illustrator 26.0.2, SVG Export Plug-In . SVG Version: 6.00 Build 0)  -->
<svg version="1.1" id="Layer_1" xmlns="http://www.w3.org/2000/svg" xmlns:xlink="http://www.w3.org/1999/xlink" x="0px" y="0px"
	 viewBox="0 0 500 300" style="enable-background:new 0 0 500 300;" xml:space="preserve">
<g>
	<path d="M184.6,146.8h-79.5c-2.6,0-3.7-3.3-1.7-4.9l7.7-6.1c3.2-2.5,7.1-3.9,11.2-3.9h58.1C182.7,136.4,184.2,141.5,184.6,146.8z"
		/>
	<path d="M184.6,152.5c-0.4,5.3-1.9,10.3-4.2,14.8H120c-5.4,0-10.5-2.2-14.2-6l-2.3-2.4c-2.3-2.4-0.6-6.4,2.7-6.4H184.6z"/>
	<path d="M176.6,173.1c-7,9-18,14.8-30.3,14.8c-9,0-17.2-3.1-23.7-8.3c-2.7-2.2-1.2-6.6,2.3-6.6H176.6z"/>
	<path d="M176.7,126.2h-52.3c-0.9,0-1.8-0.4-2.5-1l0,0c-1.5-1.5-1.4-3.9,0.2-5.2c6.1-5,13.8-8.2,22.3-8.6h3.9
		C159.9,112,170.1,117.6,176.7,126.2z"/>
	<g>
		<path d="M208.3,126.7H230l12.1,31.1h0.1l11.8-31.1h20.8v44.7h-13.1v-35.8h-0.1l-14.1,35.8h-12.2l-14.2-35.8H221v35.8h-12.6V126.7z
			"/>
		<path d="M348.3,126.7h28.1c16.6,0,21.8,5.2,21.8,13.3c0,4.5-1.9,8.8-8.1,10.7v0.1c7.1,1.6,7.8,6.6,7.8,11.3v9.4h-13.1v-9.4
			c0-4.6-1.8-6.7-7.3-6.7h-16.2v16.1h-13.1V126.7z M377,147.7c6.5,0,8.8-2.4,8.8-5.8c0-3.2-2.4-5.5-9.9-5.5h-14.5v11.4H377z"/>
		<path d="M286,126.6h22.8c21.1,0,28.2,9.7,28.2,22.4c0,14.4-7.2,22.4-26.2,22.4H286V126.6z M310.5,161.8c9.7,0,13.5-4.5,13.5-12.8
			c0-7.1-3.8-12.8-14.4-12.8h-10.4v25.5H310.5z"/>
	</g>
</g>
</svg>
