<?xml version="1.0" encoding="utf-8"?>
<!-- Generator: Adobe Illustrator 26.0.2, SVG Export Plug-In . SVG Version: 6.00 Build 0)  -->
<svg version="1.1" id="Layer_1" xmlns="http://www.w3.org/2000/svg" xmlns:xlink="http://www.w3.org/1999/xlink" x="0px" y="0px"
	 viewBox="0 0 900 300" style="enable-background:new 0 0 900 300;" xml:space="preserve">
<style type="text/css">
	.st0{fill:#FFFFFF;}
</style>
<g>
	<path class="st0" d="M246.2,147h-79.5c-2.6,0-3.7-3.3-1.7-4.9l7.7-6.1c3.2-2.5,7.1-3.9,11.2-3.9H242
		C244.4,136.7,245.8,141.7,246.2,147z"/>
	<path class="st0" d="M246.2,152.8c-0.4,5.3-1.9,10.3-4.2,14.8h-60.3c-5.4,0-10.5-2.2-14.2-6l-2.3-2.4c-2.3-2.4-0.6-6.4,2.7-6.4
		H246.2z"/>
	<path class="st0" d="M238.3,173.3c-7,9-18,14.8-30.3,14.8c-9,0-17.2-3.1-23.7-8.3c-2.7-2.2-1.2-6.6,2.3-6.6H238.3z"/>
	<path class="st0" d="M238.4,126.5h-52.3c-0.9,0-1.8-0.4-2.5-1v0c-1.5-1.5-1.4-3.9,0.2-5.2c6.1-5,13.8-8.2,22.3-8.6h3.9
		C221.5,112.2,231.7,117.9,238.4,126.5z"/>
	<g>
		<path class="st0" d="M270,127h21.7l12.1,31.1h0.1l11.8-31.1h20.8v44.7h-13.1v-35.8h-0.1l-14.1,35.8H297l-14.2-35.8h-0.1v35.8H270
			V127z"/>
		<path class="st0" d="M346.8,149.1c0-12.4,9.2-23,29.4-23s29.4,10.6,29.4,23c0,12.7-8.5,23.4-29.4,23.4
			C355.9,172.5,346.8,162.5,346.8,149.1z M391.8,149.2c0-7.3-5-13.4-15.6-13.4c-10.6,0-15.6,6.1-15.6,13.4c0,8,5,13.7,15.6,13.7
			C387.1,162.9,391.8,156.9,391.8,149.2z"/>
		<path class="st0" d="M409.3,127h14.9l17.7,34.3h0.1l17.5-34.3h13.3l-23.9,44.7h-15.6L409.3,127z"/>
		<path class="st0" d="M482.1,127h28.1c16.6,0,21.8,5.2,21.8,13.3c0,4.5-1.9,8.8-8.1,10.7v0.1c7.1,1.6,7.8,6.6,7.8,11.3v9.4h-13.1
			v-9.4c0-4.6-1.8-6.7-7.3-6.7h-16.2v16.1h-13.1V127z M510.9,148c6.5,0,8.8-2.4,8.8-5.8c0-3.2-2.4-5.5-9.9-5.5h-14.5V148H510.9z"/>
	</g>
	<path class="st0" d="M554,126.8h9.4c8.7,0,11.6,4,11.6,9.2c0,5.9-3,9.2-10.8,9.2H554V126.8z M564,141.3c4,0,5.5-1.8,5.5-5.2
		c0-2.9-1.6-5.2-5.9-5.2h-4.3v10.5H564z"/>
	<path class="st0" d="M579,136c0-5.1,3.8-9.5,12.1-9.5c8.3,0,12.1,4.4,12.1,9.5c0,5.2-3.5,9.6-12.1,9.6
		C582.8,145.6,579,141.5,579,136z M597.5,136c0-3-2.1-5.5-6.4-5.5c-4.4,0-6.4,2.5-6.4,5.5c0,3.3,2,5.6,6.4,5.6
		C595.6,141.6,597.5,139.2,597.5,136z"/>
	<path class="st0" d="M607.9,126.8h8.9l5,12.8h0l4.9-12.8h8.6v18.4h-5.4v-14.8h-0.1l-5.8,14.8h-5l-5.9-14.8h-0.1v14.8h-5.2V126.8z"
		/>
	<path class="st0" d="M657.8,141.5H647l-1.9,3.8h-5.5l10-18.4h6.4l10,18.4h-6.2L657.8,141.5z M656.2,138.4l-3.8-7.5h0l-3.8,7.5
		H656.2z"/>
	<path class="st0" d="M670.4,126.8h5.4v18.4h-5.4V126.8z"/>
	<path class="st0" d="M682.2,126.8h7.5l9.8,11.1h0v-11.1h5.2v18.4h-5.3l-12-13.6h0v13.6h-5.2V126.8z"/>
	<path class="st0" d="M554,152.8h11.6c6.8,0,9,2.2,9,5.5c0,1.8-0.8,3.6-3.3,4.4v0.1c2.9,0.7,3.2,2.7,3.2,4.6v3.9H569v-3.9
		c0-1.9-0.7-2.8-3-2.8h-6.7v6.6H554V152.8z M565.8,161.5c2.7,0,3.6-1,3.6-2.4c0-1.3-1-2.3-4.1-2.3h-6v4.7H565.8z"/>
	<path class="st0" d="M579.8,152.8h17.4v4h-12v3.6h9.2v3.1h-9.2v3.7h12.3v4h-17.7V152.8z"/>
	<path class="st0" d="M600.7,162.3c0-5.3,3.6-9.8,11.6-9.8c8.1,0,10.5,3.6,10.5,7c0,0.1,0,0.2,0,0.4H618v-0.2c0-1.4-1.4-3.2-5.5-3.2
		c-4.2,0-6.3,2.5-6.3,5.9c0,3.1,1.7,5.7,6.2,5.7c3.8,0,5.3-2,5.3-3.4v-0.1h-5.9v-2.9h11.3v9.5H619c0-0.8,0.1-2.4,0.1-3.7H619
		c-0.6,2.4-2.8,4.1-7.4,4.1C603.7,171.6,600.7,167.2,600.7,162.3z"/>
	<path class="st0" d="M628.2,152.8h5.4v18.4h-5.4V152.8z"/>
	<path class="st0" d="M638.7,165.1h4.8c0,1.6,1.1,2.8,5.7,2.8c4.9,0,5.7-1,5.7-2.2c0-0.8-0.5-1.2-1.5-1.4c-1.1-0.3-4-0.4-6-0.5
		c-2.4-0.1-5.1-0.4-6.6-1.2c-1.3-0.7-2.2-2-2.2-3.8c0-3.4,3.3-6.2,10.6-6.2c8.8,0,10.3,3,10.3,6.4h-4.8c0-1.7-1.7-2.7-5.5-2.7
		c-3.7,0-5.2,0.8-5.2,2.1c0,0.7,0.4,1.1,1.2,1.4c1,0.3,3.8,0.4,5.9,0.6c2.7,0.2,5,0.4,6.6,1c1.8,0.7,2.8,2.2,2.8,3.9
		c0,2.9-1.6,6.4-11.1,6.4C639.7,171.6,638.7,167.5,638.7,165.1z"/>
	<path class="st0" d="M670.6,156.8h-7.3v-4h19.9v4H676v14.4h-5.4V156.8z"/>
	<path class="st0" d="M687.7,152.8h11.6c6.8,0,9,2.2,9,5.5c0,1.8-0.8,3.6-3.3,4.4v0.1c2.9,0.7,3.2,2.7,3.2,4.6v3.9h-5.4v-3.9
		c0-1.9-0.7-2.8-3-2.8h-6.7v6.6h-5.4V152.8z M699.5,161.5c2.7,0,3.6-1,3.6-2.4c0-1.3-1-2.3-4.1-2.3h-6v4.7H699.5z"/>
	<path class="st0" d="M720.8,163.8l-10-10.9h7.2l6,6.7h0.1l5.9-6.7h6.3l-10,10.9v7.5h-5.4V163.8z"/>
</g>
</svg>
