<svg width="83" height="77" viewBox="0 0 83 77" fill="none" xmlns="http://www.w3.org/2000/svg">
<path d="M82.2296 35.4H2.72955C0.129548 35.4 -0.970449 32.1 1.02955 30.5L8.72955 24.4C11.9295 21.9 15.8296 20.5 19.9296 20.5H78.0295C80.3295 25 81.8296 30.1 82.2296 35.4Z" fill="white"/>
<path d="M82.2296 41.1C81.8296 46.4 80.3295 51.4 78.0295 55.9H17.6295C12.2295 55.9 7.12955 53.7 3.42955 49.9L1.12955 47.5C-1.17045 45.1 0.529543 41.1 3.82954 41.1H82.2296Z" fill="white"/>
<path d="M74.2295 61.7C67.2295 70.7 56.2295 76.5 43.9295 76.5C34.9295 76.5 26.7295 73.4 20.2295 68.2C17.5295 66 19.0295 61.6 22.5295 61.6H74.2295V61.7Z" fill="white"/>
<path d="M74.3296 14.8H22.0296C21.1296 14.8 20.2296 14.4 19.5296 13.8C18.0296 12.3 18.1296 9.9 19.7296 8.6C25.8296 3.6 33.5296 0.4 42.0296 0H45.9296C57.5296 0.6 67.7296 6.2 74.3296 14.8Z" fill="white"/>
</svg>
