<?xml version="1.0" standalone="no"?>
<!DOCTYPE svg PUBLIC "-//W3C//DTD SVG 20010904//EN"
 "http://www.w3.org/TR/2001/REC-SVG-20010904/DTD/svg10.dtd">
<svg version="1.0" xmlns="http://www.w3.org/2000/svg"
 width="710.000000pt" height="710.000000pt" viewBox="0 0 710.000000 710.000000"
 preserveAspectRatio="xMidYMid meet">
<metadata>
Created by potrace 1.14, written by Peter Selinger 2001-2017
</metadata>
<g transform="translate(0.000000,710.000000) scale(0.100000,-0.100000)"
fill="#000000" stroke="none">
<path d="M3549 6926 c-2 -2 -42 -6 -89 -10 -121 -9 -191 -19 -300 -41 -14 -3
-37 -7 -53 -10 -65 -12 -299 -76 -377 -104 -358 -125 -692 -310 -972 -538 -49
-40 -75 -70 -95 -111 -75 -154 -12 -328 145 -400 l57 -26 2223 0 c1222 -1
2222 1 2222 3 0 6 -102 130 -156 190 -450 499 -1059 846 -1729 986 -44 9 -96
19 -115 21 -19 2 -46 6 -60 9 -14 2 -47 7 -75 11 -27 3 -61 8 -75 11 -29 6
-545 15 -551 9z"/>
<path d="M1500 5188 c-243 -44 -531 -174 -692 -310 -15 -13 -40 -33 -55 -45
-15 -12 -87 -68 -158 -125 -72 -56 -204 -161 -293 -231 -193 -153 -217 -184
-216 -287 0 -54 5 -75 27 -113 29 -49 73 -88 122 -107 23 -9 823 -12 3350 -12
1826 0 3336 1 3357 1 34 1 36 3 33 29 -2 15 -6 51 -10 81 -37 344 -122 653
-277 1004 l-60 137 -2512 -1 c-2430 -2 -2514 -2 -2616 -21z"/>
<path d="M337 3473 c-99 -20 -168 -76 -215 -173 -23 -47 -27 -68 -27 -140 0
-127 8 -140 224 -365 273 -284 566 -453 899 -519 43 -9 91 -19 107 -23 17 -4
1216 -9 2665 -10 l2636 -3 43 91 c95 202 198 496 227 642 2 10 5 26 8 35 3 9
7 28 10 42 2 14 11 59 19 100 17 81 23 126 33 223 3 34 7 72 9 85 3 19 -1 22
-33 23 -20 0 -1501 1 -3291 2 -2525 2 -3268 -1 -3314 -10z"/>
<path d="M1870 1745 c-134 -46 -215 -171 -206 -316 7 -107 51 -174 175 -268
382 -291 831 -494 1291 -585 14 -2 48 -9 75 -14 28 -6 74 -13 104 -17 30 -4
62 -8 72 -10 124 -24 719 -24 759 0 3 1 34 6 70 9 36 4 74 9 85 11 11 3 31 7
45 9 517 92 995 309 1430 648 108 85 377 343 442 426 21 26 51 63 67 82 17 19
28 37 25 40 -3 3 -989 5 -2191 5 -2159 0 -2186 0 -2243 -20z"/>
</g>
</svg>
